<?xml version="1.0" encoding="UTF-8" ?>
<!DOCTYPE svg PUBLIC "-//W3C//DTD SVG 1.1//EN" "http://www.w3.org/Graphics/SVG/1.1/DTD/svg11.dtd">
<svg width="430pt" height="430pt" viewBox="0 0 430 430" version="1.1" xmlns="http://www.w3.org/2000/svg">
<path fill="#ffffff" d=" M 0.00 0.00 L 430.00 0.00 L 430.00 430.00 L 0.00 430.00 L 0.00 130.21 C 0.71 132.81 0.51 135.71 1.94 138.08 C 39.74 204.62 77.51 271.18 115.30 337.73 C 126.25 356.86 136.93 376.15 148.05 395.18 C 230.46 363.86 312.91 332.66 395.31 301.33 C 395.49 300.83 395.85 299.85 396.03 299.36 C 398.78 292.49 401.22 285.50 403.79 278.56 C 394.15 263.83 384.55 249.07 374.87 234.36 C 373.01 213.89 372.23 192.64 378.76 172.86 C 386.51 148.70 401.97 127.63 420.49 110.56 C 423.43 107.81 426.72 105.45 429.55 102.58 C 427.22 102.52 425.17 103.61 423.25 104.79 C 417.50 105.04 412.10 107.19 406.52 108.38 C 384.44 113.97 362.42 119.82 340.28 125.21 C 329.26 127.91 318.41 131.61 307.12 133.04 L 307.32 132.01 L 307.81 131.62 C 292.40 108.31 277.20 84.86 261.88 61.49 C 255.89 52.27 249.83 43.10 243.86 33.87 C 241.83 34.41 239.81 35.00 237.82 35.65 C 230.10 37.98 222.43 40.46 214.69 42.76 C 205.82 45.44 197.00 48.28 188.12 50.95 C 181.96 52.82 175.82 54.80 169.65 56.65 C 164.55 58.15 159.52 59.83 154.43 61.34 C 147.32 63.50 140.24 65.75 133.13 67.91 C 127.99 69.41 122.92 71.11 117.78 72.63 C 111.10 74.65 104.47 76.83 97.77 78.80 C 89.46 81.29 81.21 83.95 72.92 86.49 C 66.90 88.26 60.95 90.26 54.92 91.99 C 36.60 97.62 18.31 103.33 0.00 109.00 L 0.00 0.00 Z" />
<path fill="#0da7f9" d=" M 237.82 35.65 C 239.81 35.00 241.83 34.41 243.86 33.87 C 249.83 43.10 255.89 52.27 261.88 61.49 C 260.42 66.96 261.48 72.66 260.86 78.22 C 257.97 74.01 255.32 69.63 252.41 65.44 C 248.94 66.56 245.45 67.57 241.95 68.56 C 241.54 65.89 243.00 63.84 244.87 62.16 C 240.64 62.41 236.20 65.94 232.14 63.60 C 234.42 62.84 236.74 62.17 239.04 61.45 C 241.78 60.59 244.56 59.82 247.28 58.87 C 244.52 54.38 241.67 49.95 238.69 45.61 L 238.99 45.03 C 240.40 41.97 238.34 38.70 237.82 35.65 Z" />
<path fill="#0fabff" d=" M 214.69 42.76 C 222.43 40.46 230.10 37.98 237.82 35.65 C 238.34 38.70 240.40 41.97 238.99 45.03 C 236.03 43.91 233.12 46.22 230.22 46.80 C 227.72 47.56 225.22 48.29 222.77 49.16 C 223.63 50.58 224.51 51.99 225.40 53.40 C 226.33 54.91 227.27 56.40 228.21 57.91 C 229.55 59.77 230.37 62.07 232.14 63.60 C 236.20 65.94 240.64 62.41 244.87 62.16 C 243.00 63.84 241.54 65.89 241.95 68.56 C 234.05 70.99 226.09 73.25 218.18 75.65 C 218.20 73.65 218.28 71.65 218.48 69.66 C 221.99 68.58 225.49 67.50 229.02 66.48 C 227.03 61.40 223.71 56.90 220.78 52.32 C 220.30 52.11 219.34 51.68 218.87 51.47 C 217.97 51.25 217.07 51.13 216.15 51.11 C 215.09 48.45 214.68 45.61 214.69 42.76 Z" />
<path fill="#2ab4ff" d=" M 188.12 50.95 C 197.00 48.28 205.82 45.44 214.69 42.76 C 214.68 45.61 215.09 48.45 216.15 51.11 C 211.90 52.75 207.50 53.98 203.15 55.32 C 203.63 57.87 205.77 59.72 207.05 61.90 C 209.10 64.40 210.30 67.81 213.30 69.36 C 213.65 69.64 214.35 70.21 214.71 70.49 C 215.98 70.31 217.23 70.00 218.48 69.66 C 218.28 71.65 218.20 73.65 218.18 75.65 C 216.27 76.23 214.37 76.82 212.47 77.40 C 204.29 79.81 196.09 82.20 187.92 84.65 C 186.73 81.38 187.91 78.10 189.44 75.18 L 190.08 75.41 C 190.34 75.51 190.88 75.70 191.15 75.80 C 191.61 76.15 192.54 76.86 193.00 77.21 C 198.47 75.75 203.99 74.15 209.19 71.96 C 206.72 67.56 203.76 63.44 200.75 59.40 C 200.41 59.37 199.74 59.30 199.40 59.27 C 198.84 58.57 198.27 57.88 197.71 57.19 C 194.20 58.05 190.82 59.36 187.34 60.34 C 187.24 57.19 187.57 54.05 188.12 50.95 Z" />
<path fill="#e65b42" d=" M 230.22 46.80 C 233.12 46.22 236.03 43.91 238.99 45.03 L 238.69 45.61 C 238.13 45.87 237.00 46.39 236.43 46.64 C 236.12 46.78 235.50 47.06 235.19 47.19 C 234.67 48.48 234.20 49.79 233.73 51.10 C 232.40 50.53 231.08 49.96 229.74 49.42 C 229.86 48.76 230.10 47.45 230.22 46.80 Z" />
<path fill="#c71d15" d=" M 236.43 46.64 C 237.00 46.39 238.13 45.87 238.69 45.61 C 241.67 49.95 244.52 54.38 247.28 58.87 C 244.56 59.82 241.78 60.59 239.04 61.45 C 238.39 61.41 237.10 61.32 236.45 61.28 C 236.40 59.85 236.89 58.65 237.91 57.70 C 239.86 58.12 241.82 58.46 243.78 58.83 C 243.84 58.23 243.98 57.01 244.04 56.40 L 243.31 55.97 C 241.46 54.96 239.54 54.10 237.66 53.16 C 238.47 51.76 240.11 49.46 238.23 48.21 C 237.78 47.82 236.88 47.03 236.43 46.64 Z" />
<path fill="#e47962" d=" M 222.77 49.16 C 225.22 48.29 227.72 47.56 230.22 46.80 C 230.10 47.45 229.86 48.76 229.74 49.42 C 229.31 49.25 228.44 48.91 228.00 48.74 C 227.19 49.64 226.65 50.73 226.12 51.80 L 225.40 53.40 C 224.51 51.99 223.63 50.58 222.77 49.16 Z" />
<path fill="#800601" d=" M 235.19 47.19 C 235.50 47.06 236.12 46.78 236.43 46.64 C 236.88 47.03 237.78 47.82 238.23 48.21 C 237.93 49.69 235.87 52.06 237.66 53.16 C 239.54 54.10 241.46 54.96 243.31 55.97 L 242.49 57.20 C 240.34 56.86 238.25 56.20 236.11 55.80 C 235.32 57.11 234.88 58.58 234.60 60.07 C 233.35 60.10 232.11 60.05 230.87 59.92 C 231.31 58.52 231.76 57.12 232.25 55.74 L 232.70 54.83 C 230.77 53.32 228.34 52.74 226.12 51.80 C 226.65 50.73 227.19 49.64 228.00 48.74 C 228.44 48.91 229.31 49.25 229.74 49.42 C 231.08 49.96 232.40 50.53 233.73 51.10 C 234.20 49.79 234.67 48.48 235.19 47.19 Z" />
<path fill="#d24635" d=" M 238.23 48.21 C 240.11 49.46 238.47 51.76 237.66 53.16 C 235.87 52.06 237.93 49.69 238.23 48.21 Z" />
<path fill="#39b8ff" d=" M 169.65 56.65 C 175.82 54.80 181.96 52.82 188.12 50.95 C 187.57 54.05 187.24 57.19 187.34 60.34 C 185.26 60.95 183.23 61.67 181.23 62.49 C 183.97 66.71 186.81 70.88 189.44 75.18 C 187.91 78.10 186.73 81.38 187.92 84.65 C 183.27 86.11 178.57 87.35 173.93 88.82 C 172.64 87.71 170.79 86.29 171.57 84.34 C 172.67 81.23 171.36 77.94 172.34 74.79 C 173.15 72.53 171.23 70.79 170.63 68.80 C 170.90 66.55 170.55 64.28 171.04 62.05 C 169.97 60.43 169.35 58.62 169.65 56.65 Z" />
<path fill="#286993" d=" M 203.15 55.32 C 207.50 53.98 211.90 52.75 216.15 51.11 C 217.07 51.13 217.97 51.25 218.87 51.47 C 221.16 56.18 224.27 60.42 226.78 65.01 C 226.47 65.07 225.86 65.18 225.55 65.24 C 225.09 64.92 224.15 64.30 223.69 63.98 C 221.46 60.48 219.26 56.96 217.29 53.31 C 213.50 54.19 209.87 55.64 206.14 56.75 C 208.54 60.32 210.67 64.09 213.47 67.37 C 214.11 67.59 215.37 68.02 216.00 68.24 C 215.33 68.52 213.97 69.08 213.30 69.36 C 210.30 67.81 209.10 64.40 207.05 61.90 C 205.77 59.72 203.63 57.87 203.15 55.32 Z" />
<path fill="#6cc9ff" d=" M 218.87 51.47 C 219.34 51.68 220.30 52.11 220.78 52.32 C 223.71 56.90 227.03 61.40 229.02 66.48 C 225.49 67.50 221.99 68.58 218.48 69.66 C 217.23 70.00 215.98 70.31 214.71 70.49 C 214.35 70.21 213.65 69.64 213.30 69.36 C 213.97 69.08 215.33 68.52 216.00 68.24 C 219.16 67.16 222.30 66.01 225.55 65.24 C 225.86 65.18 226.47 65.07 226.78 65.01 C 224.27 60.42 221.16 56.18 218.87 51.47 Z" />
<path fill="#da5c45" d=" M 226.12 51.80 C 228.34 52.74 230.77 53.32 232.70 54.83 L 232.25 55.74 C 230.90 56.47 229.55 57.17 228.21 57.91 C 227.27 56.40 226.33 54.91 225.40 53.40 L 226.12 51.80 Z" />
<path fill="#0fabff" d=" M 206.14 56.75 C 209.87 55.64 213.50 54.19 217.29 53.31 C 219.26 56.96 221.46 60.48 223.69 63.98 C 220.29 65.14 216.91 66.33 213.47 67.37 C 210.67 64.09 208.54 60.32 206.14 56.75 Z" />
<path fill="#002b43" d=" M 209.06 58.90 C 211.71 58.13 214.29 57.13 216.95 56.40 L 217.93 57.16 C 215.36 58.35 212.68 59.27 209.98 60.09 L 209.06 58.90 Z" />
<path fill="#c52e24" d=" M 228.21 57.91 C 229.55 57.17 230.90 56.47 232.25 55.74 C 231.76 57.12 231.31 58.52 230.87 59.92 C 232.11 60.05 233.35 60.10 234.60 60.07 C 234.88 58.58 235.32 57.11 236.11 55.80 C 238.25 56.20 240.34 56.86 242.49 57.20 L 243.31 55.97 L 244.04 56.40 C 243.98 57.01 243.84 58.23 243.78 58.83 C 241.82 58.46 239.86 58.12 237.91 57.70 C 236.89 58.65 236.40 59.85 236.45 61.28 C 237.10 61.32 238.39 61.41 239.04 61.45 C 236.74 62.17 234.42 62.84 232.14 63.60 C 230.37 62.07 229.55 59.77 228.21 57.91 Z" />
<path fill="#47bdff" d=" M 154.43 61.34 C 159.52 59.83 164.55 58.15 169.65 56.65 C 169.35 58.62 169.97 60.43 171.04 62.05 C 170.55 64.28 170.90 66.55 170.63 68.80 C 171.23 70.79 173.15 72.53 172.34 74.79 C 171.36 77.94 172.67 81.23 171.57 84.34 C 170.79 86.29 172.64 87.71 173.93 88.82 C 168.33 90.51 162.72 92.13 157.12 93.80 C 156.43 94.01 155.04 94.44 154.35 94.66 C 156.39 88.54 154.97 82.07 155.57 75.78 C 155.16 70.98 154.36 66.18 154.43 61.34 Z" />
<path fill="#286993" d=" M 187.34 60.34 C 190.82 59.36 194.20 58.05 197.71 57.19 C 198.27 57.88 198.84 58.57 199.40 59.27 C 200.98 61.85 202.75 64.32 204.39 66.87 C 199.41 68.33 194.43 69.84 189.53 71.55 C 189.32 71.93 188.90 72.68 188.69 73.06 C 189.30 73.14 190.52 73.30 191.13 73.37 C 190.87 73.88 190.34 74.90 190.08 75.41 L 189.44 75.18 C 186.81 70.88 183.97 66.71 181.23 62.49 C 183.23 61.67 185.26 60.95 187.34 60.34 Z" />
<path fill="#286993" d=" M 217.93 57.16 C 218.75 59.15 220.06 60.88 221.05 62.78 C 218.46 63.53 215.89 64.33 213.31 65.10 C 212.07 63.52 210.89 61.89 209.98 60.09 C 212.68 59.27 215.36 58.35 217.93 57.16 Z" />
<path fill="#7cceff" d=" M 199.40 59.27 C 199.74 59.30 200.41 59.37 200.75 59.40 C 203.76 63.44 206.72 67.56 209.19 71.96 C 203.99 74.15 198.47 75.75 193.00 77.21 C 192.54 76.86 191.61 76.15 191.15 75.80 C 191.54 75.52 192.33 74.98 192.73 74.70 C 197.59 74.18 201.92 71.37 206.85 71.08 C 206.00 69.69 205.19 68.28 204.39 66.87 C 202.75 64.32 200.98 61.85 199.40 59.27 Z" />
<path fill="#56c2ff" d=" M 133.13 67.91 C 140.24 65.75 147.32 63.50 154.43 61.34 C 154.36 66.18 155.16 70.98 155.57 75.78 C 154.97 82.07 156.39 88.54 154.35 94.66 C 147.51 96.74 140.62 98.65 133.78 100.75 C 131.06 98.61 133.05 94.88 132.94 92.01 C 135.04 84.10 133.71 75.92 133.13 67.91 Z" />
<path fill="#0a9fed" d=" M 260.86 78.22 C 261.48 72.66 260.42 66.96 261.88 61.49 C 277.20 84.86 292.40 108.31 307.81 131.62 L 307.32 132.01 C 304.08 132.75 300.87 133.61 297.68 134.52 C 285.40 116.21 273.51 97.62 261.46 79.16 C 261.39 79.05 261.26 78.85 261.20 78.75 L 260.86 78.22 Z" />
<path fill="#1e4964" d=" M 213.47 67.37 C 216.91 66.33 220.29 65.14 223.69 63.98 C 224.15 64.30 225.09 64.92 225.55 65.24 C 222.30 66.01 219.16 67.16 216.00 68.24 C 215.37 68.02 214.11 67.59 213.47 67.37 Z" />
<path fill="#e5e2d3" d=" M 241.95 68.56 C 245.45 67.57 248.94 66.56 252.41 65.44 C 255.32 69.63 257.97 74.01 260.86 78.22 L 261.20 78.75 C 247.47 83.20 233.72 87.58 219.97 91.97 C 218.67 92.35 217.37 92.72 216.08 93.12 C 214.53 87.96 213.67 82.64 212.47 77.40 C 214.37 76.82 216.27 76.23 218.18 75.65 C 226.09 73.25 234.05 70.99 241.95 68.56 Z" />
<path fill="#1da5f0" d=" M 189.53 71.55 C 194.43 69.84 199.41 68.33 204.39 66.87 C 204.47 67.43 204.62 68.56 204.70 69.12 C 200.18 70.55 195.68 72.05 191.13 73.37 C 190.52 73.30 189.30 73.14 188.69 73.06 C 188.90 72.68 189.32 71.93 189.53 71.55 Z" />
<path fill="#002b43" d=" M 204.39 66.87 C 205.19 68.28 206.00 69.69 206.85 71.08 C 201.92 71.37 197.59 74.18 192.73 74.70 C 192.33 74.98 191.54 75.52 191.15 75.80 C 190.88 75.70 190.34 75.51 190.08 75.41 C 190.34 74.90 190.87 73.88 191.13 73.37 C 195.68 72.05 200.18 70.55 204.70 69.12 C 204.62 68.56 204.47 67.43 204.39 66.87 Z" />
<path fill="#63c6ff" d=" M 117.78 72.63 C 122.92 71.11 127.99 69.41 133.13 67.91 C 133.71 75.92 135.04 84.10 132.94 92.01 C 133.05 94.88 131.06 98.61 133.78 100.75 C 132.78 101.05 131.77 101.36 130.77 101.67 C 126.12 103.05 121.46 104.38 116.82 105.78 C 116.62 100.45 118.31 95.25 118.15 89.90 C 119.18 84.16 119.54 78.28 117.78 72.63 Z" />
<path fill="#6cc9ff" d=" M 97.77 78.80 C 104.47 76.83 111.10 74.65 117.78 72.63 C 119.54 78.28 119.18 84.16 118.15 89.90 C 118.31 95.25 116.62 100.45 116.82 105.78 C 109.11 108.14 101.34 110.31 93.63 112.66 C 93.97 107.62 96.31 102.99 96.89 97.99 C 98.26 91.68 98.37 85.21 97.77 78.80 Z" />
<path fill="#eae8da" d=" M 187.92 84.65 C 196.09 82.20 204.29 79.81 212.47 77.40 C 213.67 82.64 214.53 87.96 216.08 93.12 C 206.12 96.37 196.12 99.49 186.16 102.76 C 177.45 105.29 168.90 108.31 160.24 110.97 C 160.98 108.91 161.14 106.72 160.55 104.60 C 159.60 100.96 159.65 96.81 157.12 93.80 C 162.72 92.13 168.33 90.51 173.93 88.82 C 178.57 87.35 183.27 86.11 187.92 84.65 Z" />
<path fill="#7fcfff" d=" M 72.92 86.49 C 81.21 83.95 89.46 81.29 97.77 78.80 C 98.37 85.21 98.26 91.68 96.89 97.99 C 96.31 102.99 93.97 107.62 93.63 112.66 C 92.76 112.93 91.88 113.22 91.01 113.49 C 82.04 116.20 73.03 118.78 64.05 121.48 C 63.63 121.26 62.79 120.81 62.36 120.59 C 68.45 110.32 73.49 98.65 72.92 86.49 Z" />
<path fill="#b6b5ac" d=" M 219.97 91.97 C 233.72 87.58 247.47 83.20 261.20 78.75 C 261.26 78.85 261.39 79.05 261.46 79.16 C 259.65 83.71 258.81 88.57 257.63 93.31 C 254.43 94.57 251.14 95.55 247.88 96.64 C 238.68 99.54 229.46 102.42 220.27 105.34 C 219.95 100.89 219.90 96.43 219.97 91.97 Z" />
<path fill="#f5f4eb" d=" M 257.63 93.31 C 258.81 88.57 259.65 83.71 261.46 79.16 C 273.51 97.62 285.40 116.21 297.68 134.52 C 300.87 133.61 304.08 132.75 307.32 132.01 L 307.12 133.04 L 306.94 133.89 C 304.17 134.66 301.37 135.32 298.61 136.14 C 294.76 137.30 290.88 138.32 286.95 139.18 C 276.87 141.74 266.78 144.29 256.73 146.98 C 254.70 147.46 252.64 147.78 250.59 148.08 C 251.40 147.17 252.23 146.27 253.07 145.37 C 261.52 143.88 269.75 141.32 278.09 139.32 C 280.51 138.62 283.16 138.40 285.33 137.00 C 276.55 122.17 266.75 107.95 257.63 93.31 Z" />
<path fill="#8bd3ff" d=" M 54.92 91.99 C 60.95 90.26 66.90 88.26 72.92 86.49 C 73.49 98.65 68.45 110.32 62.36 120.59 C 62.79 120.81 63.63 121.26 64.05 121.48 C 52.27 125.00 40.46 128.43 28.70 131.98 C 31.81 137.96 35.61 143.55 38.77 149.51 C 39.28 150.49 39.78 151.47 40.31 152.44 C 36.44 154.36 32.51 156.28 28.25 157.18 C 23.68 149.12 18.81 141.22 14.24 133.16 C 19.45 132.51 24.43 130.56 28.96 127.95 C 35.59 123.80 41.93 118.83 46.12 112.10 C 50.52 106.13 53.00 99.08 54.92 91.99 Z" />
<path fill="#9cd8ff" d=" M 0.00 109.00 C 18.31 103.33 36.60 97.62 54.92 91.99 C 53.00 99.08 50.52 106.13 46.12 112.10 C 41.93 118.83 35.59 123.80 28.96 127.95 C 24.43 130.56 19.45 132.51 14.24 133.16 C 9.48 125.19 5.08 116.99 0.00 109.22 L 0.00 109.00 Z" />
<path fill="#bcbbb4" d=" M 216.08 93.12 C 217.37 92.72 218.67 92.35 219.97 91.97 C 219.90 96.43 219.95 100.89 220.27 105.34 C 209.73 108.64 199.26 112.21 188.65 115.26 C 188.28 115.08 187.55 114.72 187.18 114.54 C 186.79 110.61 187.32 106.59 186.16 102.76 C 196.12 99.49 206.12 96.37 216.08 93.12 Z" />
<path fill="#e6e4d5" d=" M 247.88 96.64 C 251.14 95.55 254.43 94.57 257.63 93.31 C 266.75 107.95 276.55 122.17 285.33 137.00 C 283.16 138.40 280.51 138.62 278.09 139.32 C 269.75 141.32 261.52 143.88 253.07 145.37 C 251.74 144.96 250.44 144.48 249.13 144.01 L 249.10 143.35 C 250.25 142.10 252.56 141.31 252.09 139.18 C 250.73 140.12 249.40 141.11 248.10 142.13 C 247.56 141.82 246.47 141.20 245.93 140.89 C 244.84 140.60 243.73 140.35 242.63 140.14 C 246.35 138.91 250.09 137.71 253.90 136.75 C 255.76 136.17 257.93 135.87 259.11 134.14 C 252.70 133.97 246.83 137.21 240.67 138.59 C 240.57 134.62 242.59 131.01 243.22 127.15 C 245.22 117.07 247.65 106.94 247.88 96.64 Z" />
<path fill="#f0eee2" d=" M 154.35 94.66 C 155.04 94.44 156.43 94.01 157.12 93.80 C 159.65 96.81 159.60 100.96 160.55 104.60 C 161.14 106.72 160.98 108.91 160.24 110.97 C 151.40 113.64 142.66 116.60 133.84 119.32 C 132.72 113.45 132.45 107.44 130.77 101.67 C 131.77 101.36 132.78 101.05 133.78 100.75 C 140.62 98.65 147.51 96.74 154.35 94.66 Z" />
<path fill="#e9e6d8" d=" M 220.27 105.34 C 229.46 102.42 238.68 99.54 247.88 96.64 C 247.65 106.94 245.22 117.07 243.22 127.15 C 242.59 131.01 240.57 134.62 240.67 138.59 C 239.75 138.87 238.82 139.15 237.90 139.42 C 237.02 138.81 236.08 138.29 235.10 137.88 C 218.99 132.29 201.83 130.08 184.81 130.85 C 186.42 130.45 187.99 129.92 189.57 129.41 C 191.24 125.24 192.91 120.87 192.84 116.32 C 191.66 116.06 190.48 115.80 189.30 115.53 L 188.65 115.26 C 199.26 112.21 209.73 108.64 220.27 105.34 Z" />
<path fill="#f3f1e7" d=" M 116.82 105.78 C 121.46 104.38 126.12 103.05 130.77 101.67 C 132.45 107.44 132.72 113.45 133.84 119.32 C 126.71 121.86 119.21 123.47 112.34 126.68 C 109.82 122.87 107.79 118.56 104.06 115.75 C 100.33 116.74 96.70 118.07 92.99 119.12 C 92.32 117.24 91.66 115.37 91.01 113.49 C 91.88 113.22 92.76 112.93 93.63 112.66 C 101.34 110.31 109.11 108.14 116.82 105.78 Z" />
<path fill="#c3c2bc" d=" M 160.24 110.97 C 168.90 108.31 177.45 105.29 186.16 102.76 C 187.32 106.59 186.79 110.61 187.18 114.54 C 187.55 114.72 188.28 115.08 188.65 115.26 L 189.30 115.53 C 170.10 121.19 151.05 127.45 131.98 133.57 C 125.02 135.66 118.16 138.08 111.13 139.95 C 111.61 135.53 112.27 131.12 112.34 126.68 C 119.21 123.47 126.71 121.86 133.84 119.32 C 142.66 116.60 151.40 113.64 160.24 110.97 Z" />
<path fill="#d0cec1" d=" M 423.25 104.79 C 425.17 103.61 427.22 102.52 429.55 102.58 C 426.72 105.45 423.43 107.81 420.49 110.56 C 401.97 127.63 386.51 148.70 378.76 172.86 C 372.23 192.64 373.01 213.89 374.87 234.36 C 375.42 239.83 376.25 245.29 377.61 250.63 C 377.28 250.58 376.62 250.47 376.29 250.42 C 374.57 244.25 373.96 237.84 373.04 231.52 C 371.96 212.37 370.81 192.70 376.40 174.08 C 383.55 150.47 397.80 129.52 415.38 112.43 C 418.07 109.95 420.89 107.60 423.25 104.79 Z" />
<path fill="#f2f0e8" d=" M 406.52 108.38 C 412.10 107.19 417.50 105.04 423.25 104.79 C 420.89 107.60 418.07 109.95 415.38 112.43 C 397.80 129.52 383.55 150.47 376.40 174.08 C 368.80 174.69 361.94 178.20 354.91 180.83 C 350.95 182.31 347.27 184.43 343.63 186.54 C 332.03 168.98 320.76 151.21 309.00 133.76 C 308.48 133.79 307.45 133.86 306.94 133.89 L 307.12 133.04 C 318.41 131.61 329.26 127.91 340.28 125.21 C 362.42 119.82 384.44 113.97 406.52 108.38 Z" />
<path fill="#0fabff" d=" M 0.00 109.22 C 5.08 116.99 9.48 125.19 14.24 133.16 C 18.81 141.22 23.68 149.12 28.25 157.18 C 30.96 161.97 33.84 166.65 36.57 171.43 C 42.18 181.29 48.15 190.95 53.76 200.81 C 57.32 207.40 61.45 213.65 65.09 220.19 C 67.25 224.11 69.49 227.99 71.95 231.74 C 75.13 238.23 79.30 244.16 82.76 250.50 C 85.43 255.40 88.12 260.32 91.30 264.92 C 95.10 262.81 98.77 260.47 102.90 259.03 C 108.22 268.19 113.67 277.26 119.01 286.42 C 122.95 293.21 127.01 299.95 130.94 306.75 C 127.00 308.49 123.08 310.26 119.32 312.34 C 125.15 323.36 131.64 334.03 137.69 344.93 C 140.96 349.89 143.65 355.19 146.80 360.21 C 148.73 363.61 151.18 366.95 151.39 371.00 C 150.84 375.23 150.40 379.48 149.51 383.66 C 100.07 298.72 50.24 214.01 0.92 129.00 C 1.11 124.12 0.59 119.25 0.00 114.41 L 0.00 109.22 Z" />
<path fill="#fcfbf4" d=" M 64.05 121.48 C 73.03 118.78 82.04 116.20 91.01 113.49 C 91.66 115.37 92.32 117.24 92.99 119.12 C 78.46 123.69 63.88 128.14 49.45 132.98 C 51.28 136.70 53.61 140.15 55.74 143.70 C 50.44 146.47 44.36 147.40 38.77 149.51 C 35.61 143.55 31.81 137.96 28.70 131.98 C 40.46 128.43 52.27 125.00 64.05 121.48 Z" />
<path fill="#9cd8ff" d=" M 0.00 114.41 C 0.59 119.25 1.11 124.12 0.92 129.00 L 0.00 128.09 L 0.00 114.41 Z" />
<path fill="#c9c9c3" d=" M 92.99 119.12 C 96.70 118.07 100.33 116.74 104.06 115.75 C 103.72 120.57 103.28 125.39 102.93 130.22 C 87.69 135.34 72.36 140.20 57.08 145.19 C 56.81 149.30 57.24 153.43 56.75 157.54 C 53.00 158.79 49.22 159.94 45.47 161.20 C 43.86 158.22 42.02 155.37 40.31 152.44 C 39.78 151.47 39.28 150.49 38.77 149.51 C 44.36 147.40 50.44 146.47 55.74 143.70 C 53.61 140.15 51.28 136.70 49.45 132.98 C 63.88 128.14 78.46 123.69 92.99 119.12 Z" />
<path fill="#faf8f1" d=" M 104.06 115.75 C 107.79 118.56 109.82 122.87 112.34 126.68 C 112.27 131.12 111.61 135.53 111.13 139.95 C 108.06 137.00 105.45 133.63 102.93 130.22 C 103.28 125.39 103.72 120.57 104.06 115.75 Z" />
<path fill="#efede0" d=" M 131.98 133.57 C 151.05 127.45 170.10 121.19 189.30 115.53 C 190.48 115.80 191.66 116.06 192.84 116.32 C 192.91 120.87 191.24 125.24 189.57 129.41 C 187.99 129.92 186.42 130.45 184.81 130.85 C 165.07 132.17 145.23 138.28 129.58 150.67 C 116.68 160.71 107.11 175.13 103.54 191.13 C 103.33 192.58 103.20 194.03 103.16 195.50 C 100.50 208.58 101.60 222.32 105.71 234.98 C 102.14 238.37 97.56 240.31 93.10 242.26 C 90.71 238.29 88.36 234.30 86.04 230.30 C 83.17 225.30 80.16 220.40 77.27 215.42 C 73.96 209.55 70.42 203.82 67.01 198.02 C 79.47 192.19 91.16 184.66 101.24 175.29 C 106.98 169.04 113.79 163.74 118.54 156.62 C 123.63 149.36 129.65 142.30 131.98 133.57 Z" />
<path fill="#0054ab" d=" M 0.00 128.09 L 0.92 129.00 C 50.24 214.01 100.07 298.72 149.51 383.66 C 149.80 384.33 150.08 385.02 150.33 385.72 C 149.94 388.95 149.05 392.09 148.05 395.18 C 136.93 376.15 126.25 356.86 115.30 337.73 C 77.51 271.18 39.74 204.62 1.94 138.08 C 0.51 135.71 0.71 132.81 0.00 130.21 L 0.00 128.09 Z" />
<path fill="#f2f0e5" d=" M 57.08 145.19 C 72.36 140.20 87.69 135.34 102.93 130.22 C 105.45 133.63 108.06 137.00 111.13 139.95 C 118.16 138.08 125.02 135.66 131.98 133.57 C 129.65 142.30 123.63 149.36 118.54 156.62 C 113.79 163.74 106.98 169.04 101.24 175.29 C 91.16 184.66 79.47 192.19 67.01 198.02 C 66.80 197.65 66.39 196.91 66.18 196.54 C 60.49 186.57 54.47 176.80 48.74 166.86 C 47.65 164.98 46.53 163.10 45.47 161.20 C 49.22 159.94 53.00 158.79 56.75 157.54 C 57.24 153.43 56.81 149.30 57.08 145.19 Z" />
<path fill="#aeada2" d=" M 129.58 150.67 C 145.23 138.28 165.07 132.17 184.81 130.85 C 201.83 130.08 218.99 132.29 235.10 137.88 C 236.08 138.29 237.02 138.81 237.90 139.42 C 234.51 140.33 231.14 141.33 227.78 142.35 C 217.36 138.75 206.33 137.09 195.34 136.46 C 188.26 135.81 181.12 136.53 174.09 137.37 C 158.96 139.40 144.01 144.56 131.65 153.66 C 117.15 163.20 107.37 178.82 103.16 195.50 C 103.20 194.03 103.33 192.58 103.54 191.13 C 107.11 175.13 116.68 160.71 129.58 150.67 Z" />
<path fill="#faf8f1" d=" M 240.67 138.59 C 246.83 137.21 252.70 133.97 259.11 134.14 C 257.93 135.87 255.76 136.17 253.90 136.75 C 250.09 137.71 246.35 138.91 242.63 140.14 C 238.37 141.10 234.20 142.36 230.00 143.56 C 223.22 145.63 216.37 147.48 209.57 149.53 C 207.15 153.14 205.00 156.90 202.64 160.55 C 194.47 162.74 186.09 164.34 178.10 167.09 C 161.29 176.97 149.35 193.68 142.19 211.56 C 141.88 212.33 141.58 213.10 141.29 213.88 C 134.21 233.14 132.27 253.99 133.57 274.37 L 132.18 275.02 C 130.52 253.38 132.90 231.28 140.19 210.82 C 145.38 198.91 151.78 187.27 161.07 178.03 C 166.34 172.73 172.05 167.38 179.09 164.60 C 186.13 162.86 193.18 161.14 200.19 159.26 C 201.55 159.06 202.02 157.61 202.71 156.64 C 204.44 153.74 206.23 150.87 208.08 148.04 C 214.64 146.11 221.23 144.31 227.78 142.35 C 231.14 141.33 234.51 140.33 237.90 139.42 C 238.82 139.15 239.75 138.87 240.67 138.59 Z" />
<path fill="#8dc6db" d=" M 298.61 136.14 C 301.37 135.32 304.17 134.66 306.94 133.89 C 307.45 133.86 308.48 133.79 309.00 133.76 C 320.76 151.21 332.03 168.98 343.63 186.54 C 353.46 201.52 363.14 216.60 373.04 231.52 C 373.96 237.84 374.57 244.25 376.29 250.42 C 376.62 250.47 377.28 250.58 377.61 250.63 C 377.65 250.83 377.74 251.25 377.78 251.45 C 377.71 253.04 377.62 254.64 377.52 256.23 C 376.05 255.03 375.12 253.39 374.11 251.83 C 359.39 229.40 344.74 206.92 330.09 184.45 C 319.64 168.31 309.00 152.31 298.61 136.14 Z" />
<path fill="#e65b42" d=" M 174.09 137.37 C 181.12 136.53 188.26 135.81 195.34 136.46 C 191.46 146.64 184.67 155.34 179.09 164.60 C 172.05 167.38 166.34 172.73 161.07 178.03 C 151.78 187.27 145.38 198.91 140.19 210.82 C 132.57 208.06 125.42 203.56 119.24 198.22 C 120.63 196.57 122.20 195.09 124.02 193.93 C 135.14 186.24 144.25 176.19 153.78 166.69 C 161.30 157.50 168.94 148.16 174.09 137.37 Z" />
<path fill="#edebdf" d=" M 286.95 139.18 C 290.88 138.32 294.76 137.30 298.61 136.14 C 309.00 152.31 319.64 168.31 330.09 184.45 C 326.31 186.03 322.46 188.19 320.50 191.96 C 319.38 190.35 318.31 188.72 317.29 187.05 C 306.92 171.26 297.08 155.13 286.95 139.18 Z" />
<path fill="#e2523c" d=" M 195.34 136.46 C 206.33 137.09 217.36 138.75 227.78 142.35 C 221.23 144.31 214.64 146.11 208.08 148.04 C 206.23 150.87 204.44 153.74 202.71 156.64 C 202.02 157.61 201.55 159.06 200.19 159.26 C 193.18 161.14 186.13 162.86 179.09 164.60 C 184.67 155.34 191.46 146.64 195.34 136.46 Z" />
<path fill="#e96348" d=" M 131.65 153.66 C 144.01 144.56 158.96 139.40 174.09 137.37 C 168.94 148.16 161.30 157.50 153.78 166.69 C 144.25 176.19 135.14 186.24 124.02 193.93 C 122.20 195.09 120.63 196.57 119.24 198.22 C 117.86 196.89 116.44 195.57 115.33 194.01 C 115.02 188.51 116.53 183.15 118.13 177.96 C 121.18 169.16 125.55 160.74 131.65 153.66 Z" />
<path fill="#e5e2d3" d=" M 256.73 146.98 C 266.78 144.29 276.87 141.74 286.95 139.18 C 297.08 155.13 306.92 171.26 317.29 187.05 C 314.05 190.66 309.62 193.00 306.77 197.00 C 302.22 188.56 297.06 180.30 290.16 173.56 C 280.86 162.63 268.88 154.43 256.73 146.98 Z" />
<path fill="#d0cec1" d=" M 230.00 143.56 C 234.20 142.36 238.37 141.10 242.63 140.14 C 243.73 140.35 244.84 140.60 245.93 140.89 C 245.90 141.64 245.83 143.14 245.79 143.89 C 244.63 145.02 243.22 146.01 242.62 147.58 C 238.39 146.33 234.51 143.73 230.00 143.56 Z" />
<path fill="#7e8278" d=" M 248.10 142.13 C 249.40 141.11 250.73 140.12 252.09 139.18 C 252.56 141.31 250.25 142.10 249.10 143.35 L 249.13 144.01 C 249.19 144.56 249.32 145.64 249.38 146.19 C 248.80 145.83 247.65 145.13 247.07 144.77 C 245.77 145.78 244.49 146.79 243.19 147.79 L 242.62 147.58 C 243.22 146.01 244.63 145.02 245.79 143.89 C 245.83 143.14 245.90 141.64 245.93 140.89 C 246.47 141.20 247.56 141.82 248.10 142.13 Z" />
<path fill="#dfa08f" d=" M 209.57 149.53 C 216.37 147.48 223.22 145.63 230.00 143.56 C 234.51 143.73 238.39 146.33 242.62 147.58 L 243.19 147.79 C 247.35 150.17 251.70 152.19 255.82 154.64 C 252.64 158.51 251.32 163.47 248.70 167.70 C 242.63 179.85 234.74 190.93 227.00 202.04 C 228.95 204.40 231.11 206.57 233.18 208.84 C 232.51 208.84 231.19 208.85 230.52 208.85 C 220.66 199.00 205.78 193.97 192.06 197.30 C 182.38 199.35 173.77 207.31 172.72 217.42 C 162.30 217.91 151.85 215.35 142.19 211.56 C 149.35 193.68 161.29 176.97 178.10 167.09 C 186.09 164.34 194.47 162.74 202.64 160.55 C 205.00 156.90 207.15 153.14 209.57 149.53 Z" />
<path fill="#d0cec1" d=" M 249.13 144.01 C 250.44 144.48 251.74 144.96 253.07 145.37 C 252.23 146.27 251.40 147.17 250.59 148.08 C 252.64 147.78 254.70 147.46 256.73 146.98 C 268.88 154.43 280.86 162.63 290.16 173.56 C 288.35 175.08 286.74 176.84 285.57 178.90 C 276.93 169.39 266.87 161.19 255.82 154.64 C 251.70 152.19 247.35 150.17 243.19 147.79 C 244.49 146.79 245.77 145.78 247.07 144.77 C 247.65 145.13 248.80 145.83 249.38 146.19 C 249.32 145.64 249.19 144.56 249.13 144.01 Z" />
<path fill="#7cceff" d=" M 28.25 157.18 C 32.51 156.28 36.44 154.36 40.31 152.44 C 42.02 155.37 43.86 158.22 45.47 161.20 C 46.53 163.10 47.65 164.98 48.74 166.86 C 44.38 167.44 40.54 169.68 36.57 171.43 C 33.84 166.65 30.96 161.97 28.25 157.18 Z" />
<path fill="#00913b" d=" M 103.16 195.50 C 107.37 178.82 117.15 163.20 131.65 153.66 C 125.55 160.74 121.18 169.16 118.13 177.96 C 116.53 183.15 115.02 188.51 115.33 194.01 C 116.44 195.57 117.86 196.89 119.24 198.22 C 125.42 203.56 132.57 208.06 140.19 210.82 C 132.90 231.28 130.52 253.38 132.18 275.02 C 132.09 275.27 131.91 275.75 131.82 275.99 C 120.29 264.43 110.76 250.60 105.71 234.98 C 101.60 222.32 100.50 208.58 103.16 195.50 Z" />
<path fill="#df9b8c" d=" M 248.70 167.70 C 251.32 163.47 252.64 158.51 255.82 154.64 C 266.87 161.19 276.93 169.39 285.57 178.90 C 292.02 185.94 297.32 194.00 301.48 202.59 C 299.87 209.17 298.36 215.80 295.79 222.09 C 292.80 221.10 290.44 218.86 287.62 217.52 C 270.95 208.81 251.62 207.52 233.18 208.84 C 231.11 206.57 228.95 204.40 227.00 202.04 C 234.74 190.93 242.63 179.85 248.70 167.70 Z" />
<path fill="#6cc9ff" d=" M 36.57 171.43 C 40.54 169.68 44.38 167.44 48.74 166.86 C 54.47 176.80 60.49 186.57 66.18 196.54 C 65.04 197.51 63.87 198.46 62.65 199.34 C 61.87 199.05 61.08 198.76 60.29 198.48 C 58.76 200.65 56.14 200.67 53.76 200.81 C 48.15 190.95 42.18 181.29 36.57 171.43 Z" />
<path fill="#dcdad0" d=" M 285.57 178.90 C 286.74 176.84 288.35 175.08 290.16 173.56 C 297.06 180.30 302.22 188.56 306.77 197.00 C 315.18 212.32 317.86 230.41 315.58 247.65 C 312.18 267.17 300.70 285.23 284.05 296.08 C 275.44 302.44 265.25 306.07 255.13 309.25 C 251.11 310.48 246.94 311.52 242.70 311.02 C 259.39 307.31 276.04 300.67 288.34 288.42 C 300.88 276.73 308.71 260.16 309.78 243.05 C 310.71 230.22 307.89 217.32 302.83 205.56 C 302.39 204.56 301.93 203.57 301.48 202.59 C 297.32 194.00 292.02 185.94 285.57 178.90 Z" />
<path fill="#f6f4ed" d=" M 354.91 180.83 C 361.94 178.20 368.80 174.69 376.40 174.08 C 370.81 192.70 371.96 212.37 373.04 231.52 C 363.14 216.60 353.46 201.52 343.63 186.54 C 347.27 184.43 350.95 182.31 354.91 180.83 Z" />
<path fill="#f3f1e8" d=" M 320.50 191.96 C 322.46 188.19 326.31 186.03 330.09 184.45 C 344.74 206.92 359.39 229.40 374.11 251.83 C 375.12 253.39 376.05 255.03 377.52 256.23 C 377.62 254.64 377.71 253.04 377.78 251.45 C 378.92 256.67 380.34 262.04 383.52 266.43 C 384.93 268.60 386.45 270.71 387.75 272.95 C 383.42 274.03 379.34 275.91 375.12 277.33 C 370.79 272.02 367.61 265.92 363.81 260.25 C 355.85 247.82 348.05 235.29 340.23 222.78 C 333.35 212.71 327.43 202.00 320.50 191.96 Z" />
<path fill="#e8e6da" d=" M 317.29 187.05 C 318.31 188.72 319.38 190.35 320.50 191.96 C 327.43 202.00 333.35 212.71 340.23 222.78 C 348.05 235.29 355.85 247.82 363.81 260.25 C 367.61 265.92 370.79 272.02 375.12 277.33 C 374.76 277.48 374.05 277.77 373.70 277.92 C 333.31 292.44 292.96 307.07 252.60 321.67 C 251.96 319.81 251.29 317.98 250.58 316.16 C 248.69 317.83 246.85 319.56 244.90 321.17 C 243.67 318.62 243.29 315.79 242.64 313.07 C 240.86 314.72 239.09 316.38 237.20 317.91 C 235.34 316.21 236.44 313.76 236.88 311.71 C 238.82 311.50 240.76 311.25 242.70 311.02 C 246.94 311.52 251.11 310.48 255.13 309.25 C 265.25 306.07 275.44 302.44 284.05 296.08 C 300.70 285.23 312.18 267.17 315.58 247.65 C 317.86 230.41 315.18 212.32 306.77 197.00 C 309.62 193.00 314.05 190.66 317.29 187.05 Z" />
<path fill="#86b0d0" d=" M 192.06 197.30 C 205.78 193.97 220.66 199.00 230.52 208.85 C 235.43 214.42 239.22 221.43 239.03 229.04 C 239.26 238.64 232.19 247.28 223.34 250.37 C 217.36 252.81 210.79 252.78 204.46 252.25 C 192.99 249.85 181.86 243.45 176.09 232.95 C 173.19 228.31 172.53 222.78 172.72 217.42 C 173.77 207.31 182.38 199.35 192.06 197.30 Z" />
<path fill="#56c2ff" d=" M 62.65 199.34 C 63.87 198.46 65.04 197.51 66.18 196.54 C 66.39 196.91 66.80 197.65 67.01 198.02 C 70.42 203.82 73.96 209.55 77.27 215.42 C 73.15 216.76 69.60 220.55 65.09 220.19 C 61.45 213.65 57.32 207.40 53.76 200.81 C 56.14 200.67 58.76 200.65 60.29 198.48 C 61.08 198.76 61.87 199.05 62.65 199.34 Z" />
<path fill="#ede0b1" d=" M 301.48 202.59 C 301.93 203.57 302.39 204.56 302.83 205.56 C 300.73 212.16 299.41 219.10 296.09 225.25 C 290.72 221.77 285.39 218.06 279.19 216.21 C 265.01 211.43 249.91 209.68 234.99 210.27 C 236.02 213.91 238.52 216.94 239.48 220.62 C 242.74 229.21 241.53 240.03 234.44 246.39 C 226.90 253.28 216.20 254.52 206.43 254.60 C 198.80 257.70 191.28 261.09 183.41 263.57 C 176.03 265.92 168.40 268.32 160.56 267.76 C 174.41 264.77 187.58 259.40 200.70 254.16 C 201.99 253.60 203.23 252.93 204.46 252.25 C 210.79 252.78 217.36 252.81 223.34 250.37 C 232.19 247.28 239.26 238.64 239.03 229.04 C 239.22 221.43 235.43 214.42 230.52 208.85 C 231.19 208.85 232.51 208.84 233.18 208.84 C 251.62 207.52 270.95 208.81 287.62 217.52 C 290.44 218.86 292.80 221.10 295.79 222.09 C 298.36 215.80 299.87 209.17 301.48 202.59 Z" />
<path fill="#f3d98d" d=" M 296.09 225.25 C 299.41 219.10 300.73 212.16 302.83 205.56 C 307.89 217.32 310.71 230.22 309.78 243.05 C 308.71 260.16 300.88 276.73 288.34 288.42 C 276.04 300.67 259.39 307.31 242.70 311.02 C 240.76 311.25 238.82 311.50 236.88 311.71 C 234.21 311.99 231.54 312.21 228.86 312.35 C 228.95 310.95 229.06 309.55 229.16 308.16 C 231.99 305.60 234.23 302.50 236.64 299.57 C 238.23 297.78 237.93 295.13 239.08 293.12 C 241.06 290.80 244.83 289.23 244.01 285.55 C 243.13 285.57 242.25 285.59 241.38 285.61 C 243.43 282.61 244.93 279.17 247.73 276.74 C 250.73 274.53 249.76 270.37 251.44 267.42 C 252.92 265.27 255.06 263.70 256.61 261.61 C 257.66 259.81 258.01 257.71 258.92 255.85 C 260.77 253.11 264.06 251.45 265.15 248.20 C 267.37 241.57 269.36 234.81 272.73 228.65 C 274.88 224.50 278.13 220.87 279.19 216.21 C 285.39 218.06 290.72 221.77 296.09 225.25 Z" />
<path fill="#f0d881" d=" M 234.99 210.27 C 249.91 209.68 265.01 211.43 279.19 216.21 C 278.13 220.87 274.88 224.50 272.73 228.65 C 269.36 234.81 267.37 241.57 265.15 248.20 C 264.06 251.45 260.77 253.11 258.92 255.85 C 258.01 257.71 257.66 259.81 256.61 261.61 C 255.06 263.70 252.92 265.27 251.44 267.42 C 249.76 270.37 250.73 274.53 247.73 276.74 C 244.93 279.17 243.43 282.61 241.38 285.61 C 242.25 285.59 243.13 285.57 244.01 285.55 C 244.83 289.23 241.06 290.80 239.08 293.12 C 237.93 295.13 238.23 297.78 236.64 299.57 C 234.23 302.50 231.99 305.60 229.16 308.16 C 229.06 309.55 228.95 310.95 228.86 312.35 C 218.61 312.75 208.29 312.29 198.24 310.17 C 194.02 307.83 190.12 304.99 186.39 301.93 C 189.41 298.28 193.93 296.54 197.44 293.49 C 198.76 291.24 197.25 288.02 198.77 285.83 C 202.55 282.19 207.34 279.79 211.18 276.23 C 213.44 270.81 214.26 265.05 214.73 259.24 C 209.51 262.67 205.20 267.29 200.07 270.84 C 200.08 267.45 199.81 263.69 201.67 260.69 C 203.08 258.58 206.38 257.43 206.43 254.60 C 216.20 254.52 226.90 253.28 234.44 246.39 C 241.53 240.03 242.74 229.21 239.48 220.62 C 238.52 216.94 236.02 213.91 234.99 210.27 Z" />
<path fill="#add0a3" d=" M 141.29 213.88 C 141.58 213.10 141.88 212.33 142.19 211.56 C 151.85 215.35 162.30 217.91 172.72 217.42 C 172.53 222.78 173.19 228.31 176.09 232.95 C 181.86 243.45 192.99 249.85 204.46 252.25 C 203.23 252.93 201.99 253.60 200.70 254.16 C 192.01 250.62 182.71 246.81 177.10 238.87 C 173.20 233.77 171.11 227.56 170.46 221.22 C 166.35 220.26 162.12 220.06 158.01 219.15 C 152.27 217.97 146.87 215.63 141.29 213.88 Z" />
<path fill="#84c090" d=" M 141.29 213.88 C 146.87 215.63 152.27 217.97 158.01 219.15 C 162.12 220.06 166.35 220.26 170.46 221.22 C 171.11 227.56 173.20 233.77 177.10 238.87 C 182.71 246.81 192.01 250.62 200.70 254.16 C 187.58 259.40 174.41 264.77 160.56 267.76 L 159.69 267.95 C 162.79 274.48 166.76 280.60 171.18 286.32 C 169.73 286.88 168.05 287.25 167.37 288.82 C 167.71 289.52 168.04 290.21 168.37 290.92 C 166.56 291.82 164.30 292.51 163.43 294.54 L 163.59 293.48 C 163.28 293.54 162.67 293.66 162.37 293.72 C 161.51 294.63 160.66 295.54 159.82 296.46 C 150.50 291.22 141.58 285.16 133.78 277.83 C 133.75 277.04 133.69 275.46 133.67 274.67 C 133.20 275.00 132.28 275.66 131.82 275.99 C 131.91 275.75 132.09 275.27 132.18 275.02 L 133.57 274.37 C 132.27 253.99 134.21 233.14 141.29 213.88 Z" />
<path fill="#47bdff" d=" M 65.09 220.19 C 69.60 220.55 73.15 216.76 77.27 215.42 C 80.16 220.40 83.17 225.30 86.04 230.30 C 85.54 230.36 84.56 230.49 84.07 230.56 C 83.46 230.23 82.85 229.91 82.25 229.59 C 82.08 230.11 81.75 231.16 81.59 231.68 C 81.21 230.84 80.82 230.00 80.44 229.17 C 80.21 230.30 79.98 231.43 79.76 232.57 C 79.28 232.19 78.80 231.80 78.33 231.42 C 78.18 231.94 77.88 232.99 77.73 233.51 C 77.23 233.19 76.72 232.87 76.22 232.56 C 76.10 233.04 75.87 234.02 75.75 234.50 C 74.54 233.51 73.26 232.60 71.95 231.74 C 69.49 227.99 67.25 224.11 65.09 220.19 Z" />
<path fill="#39b8ff" d=" M 79.76 232.57 C 79.98 231.43 80.21 230.30 80.44 229.17 C 80.82 230.00 81.21 230.84 81.59 231.68 C 81.75 231.16 82.08 230.11 82.25 229.59 C 82.85 229.91 83.46 230.23 84.07 230.56 C 84.56 230.49 85.54 230.36 86.04 230.30 C 88.36 234.30 90.71 238.29 93.10 242.26 C 93.81 243.46 94.51 244.67 95.20 245.89 C 94.16 245.37 93.12 244.87 92.08 244.37 C 91.59 245.33 91.10 246.29 90.62 247.26 C 90.14 247.05 89.67 246.85 89.20 246.64 C 89.08 247.14 88.83 248.12 88.71 248.62 C 88.22 248.24 87.74 247.87 87.25 247.50 C 87.09 248.09 86.77 249.29 86.61 249.89 C 86.29 249.05 85.96 248.21 85.64 247.37 C 84.68 248.41 83.72 249.45 82.76 250.50 C 79.30 244.16 75.13 238.23 71.95 231.74 C 73.26 232.60 74.54 233.51 75.75 234.50 C 75.87 234.02 76.10 233.04 76.22 232.56 C 76.72 232.87 77.23 233.19 77.73 233.51 C 77.88 232.99 78.18 231.94 78.33 231.42 C 78.80 231.80 79.28 232.19 79.76 232.57 Z" />
<path fill="#eae7d9" d=" M 93.10 242.26 C 97.56 240.31 102.14 238.37 105.71 234.98 C 110.76 250.60 120.29 264.43 131.82 275.99 C 131.98 276.70 132.31 278.12 132.47 278.83 C 128.10 281.56 123.62 284.12 119.01 286.42 C 113.67 277.26 108.22 268.19 102.90 259.03 C 100.36 254.63 97.71 250.31 95.20 245.89 C 94.51 244.67 93.81 243.46 93.10 242.26 Z" />
<path fill="#0289ce" d=" M 374.87 234.36 C 384.55 249.07 394.15 263.83 403.79 278.56 C 400.23 279.72 396.72 281.00 393.10 281.94 C 391.24 278.99 389.25 276.11 387.75 272.95 C 386.45 270.71 384.93 268.60 383.52 266.43 C 380.34 262.04 378.92 256.67 377.78 251.45 C 377.74 251.25 377.65 250.83 377.61 250.63 C 376.25 245.29 375.42 239.83 374.87 234.36 Z" />
<path fill="#2ab4ff" d=" M 92.08 244.37 C 93.12 244.87 94.16 245.37 95.20 245.89 C 97.71 250.31 100.36 254.63 102.90 259.03 C 98.77 260.47 95.10 262.81 91.30 264.92 C 88.12 260.32 85.43 255.40 82.76 250.50 C 83.72 249.45 84.68 248.41 85.64 247.37 C 85.96 248.21 86.29 249.05 86.61 249.89 C 86.77 249.29 87.09 248.09 87.25 247.50 C 87.74 247.87 88.22 248.24 88.71 248.62 C 88.83 248.12 89.08 247.14 89.20 246.64 C 89.67 246.85 90.14 247.05 90.62 247.26 C 91.10 246.29 91.59 245.33 92.08 244.37 Z" />
<path fill="#eed67c" d=" M 183.41 263.57 C 191.28 261.09 198.80 257.70 206.43 254.60 C 206.38 257.43 203.08 258.58 201.67 260.69 C 199.81 263.69 200.08 267.45 200.07 270.84 C 205.20 267.29 209.51 262.67 214.73 259.24 C 214.26 265.05 213.44 270.81 211.18 276.23 C 207.34 279.79 202.55 282.19 198.77 285.83 C 197.25 288.02 198.76 291.24 197.44 293.49 C 193.93 296.54 189.41 298.28 186.39 301.93 C 180.74 297.33 175.75 291.98 171.18 286.32 C 166.76 280.60 162.79 274.48 159.69 267.95 L 160.56 267.76 C 168.40 268.32 176.03 265.92 183.41 263.57 Z" />
<path fill="#0071ac" d=" M 375.12 277.33 C 379.34 275.91 383.42 274.03 387.75 272.95 C 389.25 276.11 391.24 278.99 393.10 281.94 C 392.56 282.12 391.48 282.49 390.94 282.67 C 366.39 292.15 341.37 300.42 316.70 309.63 C 297.07 316.22 277.84 323.97 258.15 330.36 C 260.73 326.40 264.21 323.20 267.80 320.18 C 267.32 320.03 266.37 319.74 265.90 319.59 C 298.81 307.45 331.61 294.99 364.31 282.29 C 367.47 280.92 371.03 280.23 373.70 277.92 C 374.05 277.77 374.76 277.48 375.12 277.33 Z" />
<path fill="#ffffff" d=" M 131.82 275.99 C 132.28 275.66 133.20 275.00 133.67 274.67 C 133.69 275.46 133.75 277.04 133.78 277.83 C 134.92 292.19 138.05 306.36 142.85 319.94 C 143.95 323.03 145.39 326.03 145.97 329.29 C 145.38 328.43 144.87 327.53 144.42 326.60 C 138.34 311.29 134.25 295.21 132.47 278.83 C 132.31 278.12 131.98 276.70 131.82 275.99 Z" />
<path fill="#e1decf" d=" M 133.78 277.83 C 141.58 285.16 150.50 291.22 159.82 296.46 C 171.81 302.96 184.82 307.67 198.24 310.17 C 208.29 312.29 218.61 312.75 228.86 312.35 C 231.54 312.21 234.21 311.99 236.88 311.71 C 236.44 313.76 235.34 316.21 237.20 317.91 C 239.09 316.38 240.86 314.72 242.64 313.07 C 243.29 315.79 243.67 318.62 244.90 321.17 C 246.85 319.56 248.69 317.83 250.58 316.16 C 251.29 317.98 251.96 319.81 252.60 321.67 C 222.90 332.45 193.17 343.13 163.49 353.95 C 162.19 354.39 160.91 354.90 159.65 355.42 C 155.62 349.81 152.46 343.65 149.06 337.65 C 143.12 327.30 136.97 317.06 130.94 306.75 C 127.01 299.95 122.95 293.21 119.01 286.42 C 123.62 284.12 128.10 281.56 132.47 278.83 C 134.25 295.21 138.34 311.29 144.42 326.60 C 144.87 327.53 145.38 328.43 145.97 329.29 C 145.39 326.03 143.95 323.03 142.85 319.94 C 138.05 306.36 134.92 292.19 133.78 277.83 Z" />
<path fill="#1e4964" d=" M 252.60 321.67 C 292.96 307.07 333.31 292.44 373.70 277.92 C 371.03 280.23 367.47 280.92 364.31 282.29 C 331.61 294.99 298.81 307.45 265.90 319.59 C 235.38 330.91 204.64 341.65 173.63 351.55 C 170.26 352.39 167.01 353.90 163.49 353.95 C 193.17 343.13 222.90 332.45 252.60 321.67 Z" />
<path fill="#006ca0" d=" M 393.10 281.94 C 396.72 281.00 400.23 279.72 403.79 278.56 C 401.22 285.50 398.78 292.49 396.03 299.36 C 396.14 297.62 396.21 295.90 396.28 294.17 C 394.14 294.81 392.01 295.48 389.92 296.27 C 390.42 291.83 393.15 287.67 392.91 283.25 C 392.42 283.10 391.43 282.82 390.94 282.67 C 391.48 282.49 392.56 282.12 393.10 281.94 Z" />
<path fill="#005886" d=" M 316.70 309.63 C 341.37 300.42 366.39 292.15 390.94 282.67 C 391.43 282.82 392.42 283.10 392.91 283.25 C 393.15 287.67 390.42 291.83 389.92 296.27 C 314.25 324.44 238.54 352.50 162.88 380.69 C 164.01 375.05 164.91 369.36 165.66 363.66 C 196.50 352.59 227.38 341.61 258.15 330.36 C 277.84 323.97 297.07 316.22 316.70 309.63 Z" />
<path fill="#93c695" d=" M 167.37 288.82 C 168.05 287.25 169.73 286.88 171.18 286.32 C 175.75 291.98 180.74 297.33 186.39 301.93 C 190.12 304.99 194.02 307.83 198.24 310.17 C 184.82 307.67 171.81 302.96 159.82 296.46 C 160.66 295.54 161.51 294.63 162.37 293.72 C 162.67 293.66 163.28 293.54 163.59 293.48 L 163.43 294.54 C 164.30 292.51 166.56 291.82 168.37 290.92 C 168.04 290.21 167.71 289.52 167.37 288.82 Z" />
<path fill="#002b43" d=" M 389.92 296.27 C 392.01 295.48 394.14 294.81 396.28 294.17 C 396.21 295.90 396.14 297.62 396.03 299.36 C 395.85 299.85 395.49 300.83 395.31 301.33 C 312.91 332.66 230.46 363.86 148.05 395.18 C 149.05 392.09 149.94 388.95 150.33 385.72 C 154.43 383.84 158.68 382.31 162.88 380.69 C 238.54 352.50 314.25 324.44 389.92 296.27 Z" />
<path fill="#0a9fed" d=" M 119.32 312.34 C 123.08 310.26 127.00 308.49 130.94 306.75 C 136.97 317.06 143.12 327.30 149.06 337.65 C 145.42 338.82 141.68 340.09 138.62 342.46 C 138.39 343.08 137.92 344.31 137.69 344.93 C 131.64 334.03 125.15 323.36 119.32 312.34 Z" />
<path fill="#0478b9" d=" M 173.63 351.55 C 204.64 341.65 235.38 330.91 265.90 319.59 C 266.37 319.74 267.32 320.03 267.80 320.18 C 264.21 323.20 260.73 326.40 258.15 330.36 C 227.38 341.61 196.50 352.59 165.66 363.66 L 165.16 363.82 C 163.69 360.79 161.83 357.98 159.65 355.42 C 160.91 354.90 162.19 354.39 163.49 353.95 C 167.01 353.90 170.26 352.39 173.63 351.55 Z" />
<path fill="#0899e6" d=" M 138.62 342.46 C 141.68 340.09 145.42 338.82 149.06 337.65 C 152.46 343.65 155.62 349.81 159.65 355.42 C 161.83 357.98 163.69 360.79 165.16 363.82 C 160.79 365.15 156.53 366.83 152.27 368.48 C 151.96 369.31 151.67 370.15 151.39 371.00 C 151.18 366.95 148.73 363.61 146.80 360.21 C 143.65 355.19 140.96 349.89 137.69 344.93 C 137.92 344.31 138.39 343.08 138.62 342.46 Z" />
<path fill="#006ca0" d=" M 152.27 368.48 C 156.53 366.83 160.79 365.15 165.16 363.82 L 165.66 363.66 C 164.91 369.36 164.01 375.05 162.88 380.69 C 158.68 382.31 154.43 383.84 150.33 385.72 C 150.08 385.02 149.80 384.33 149.51 383.66 C 150.40 379.48 150.84 375.23 151.39 371.00 C 151.67 370.15 151.96 369.31 152.27 368.48 Z" />
</svg>
